<?xml version="1.0" encoding="UTF-8"?>
<svg id="Warstwa_2" data-name="Warstwa 2" xmlns="http://www.w3.org/2000/svg" viewBox="0 0 258.1 68.8">
  <defs>
    <style>
      .cls-1 {
        fill: #fff;
      }
    </style>
  </defs>
  <g id="Warstwa_1-2" data-name="Warstwa 1">
    <g>
      <path class="cls-1" d="m94.22,53.45h-9.37v14.88h2.82v-6.28h6.56c4.53,0,6.18-2.34,6.18-4.41,0-2.41-2.32-4.19-6.18-4.19m-.96,6.88h-5.6v-5.16h5.72c2.32,0,4.12.6,4.12,2.49,0,2.01-1.71,2.67-4.24,2.67"/>
      <path class="cls-1" d="m142.95,68.23h-3.18l-4.25-6.04c-.05-.08-.16-.12-.26-.14h.14s-.09-.01-.14,0h-5.71v6.28h-2.81v-14.88h9.37c3.86,0,6.18,1.78,6.18,4.19,0,1.71-1.14,3.61-4.09,4.21l4.74,6.38Zm-13.4-7.9h5.6c2.53,0,4.24-.66,4.24-2.67,0-1.89-1.8-2.49-4.12-2.49h-5.72v5.16Z"/>
      <path class="cls-1" d="m109.83,53.45l-8.67,14.88h3.21l2.41-4.33h9.25l2.28,4.33h3.4l-8.35-14.88h-3.53Zm-2.09,8.77l3.69-6.55h.06l3.41,6.55h-7.16Z"/>
      <path class="cls-1" d="m169.96,60.32l-5.74-.97c-1.17-.21-2.38-.62-2.38-1.89,0-2.26,2.88-2.61,4.59-2.61,2.27,0,4.84.72,4.98,3.03h2.55c-.11-1.64-.81-4.75-7.84-4.75-4.87,0-6.91,2.28-6.91,4.6,0,2.59,2.97,3.28,4.28,3.5l4.11.71c3.3.58,4.28,1.08,4.28,2.63,0,2.14-3.3,2.51-5.26,2.51-2.57,0-5.54-.79-5.54-3.48h-2.55c0,1.39.34,2.63,2.04,3.77.9.6,2.35,1.43,6.07,1.43,3.44,0,7.86-.97,7.86-4.5,0-2.36-1.96-3.52-4.56-3.98"/>
      <rect class="cls-1" x="149.55" y="53.37" width="2.67" height="2.67"/>
      <rect class="cls-1" x="149.57" y="57.62" width="2.67" height="10.64"/>
      <polygon class="cls-1" points="140.42 43.56 173.73 43.56 173.73 39.49 146.13 39.49 146.13 26.47 166.86 26.47 166.86 22.35 146.13 22.35 146.13 10.36 173.73 10.36 173.73 6.3 140.42 6.3 140.42 43.56"/>
      <polygon class="cls-1" points="157.73 .29 153.22 5.35 167.37 .29 157.73 .29"/>
      <polygon class="cls-1" points="229.64 39.49 229.64 6.3 224.43 6.3 224.43 43.56 258.1 43.56 258.1 39.49 229.64 39.49"/>
      <path class="cls-1" d="m195.31,6.3l-18.94,37.25h6.4l4.85-9.64h22.71l4.89,9.64h6.34l-18.96-37.25h-7.29Zm-5.3,22.95l8.92-17.79,9.04,17.79h-17.96Z"/>
      <path class="cls-1" d="m122.34,27.98c8.53-2.28,9.36-8.63,9.32-10.9-.51-6.66-4.99-10.78-13.05-10.78h-23.48v37.25h5.35v-15.62h15.28l11.24,15.62h6.75s-8.09-10.52-11.42-15.57m-4.46-4.45h-17.39v-12.81h18c4.14,0,6.47,1.93,7.31,4.39.55,1.69.2,3.9-.72,5.4-1.5,2.49-4.36,3.02-7.2,3.02"/>
      <path class="cls-1" d="m62.97,0c-15.1,0-25.4,10.65-25.4,23.55,0,13.57,11.38,23.15,25.4,23.15s25.39-9.44,25.39-23.15c0-12.9-10.43-23.55-25.39-23.55m-.18,42.07c-10.45,0-19.07-8.4-19.07-18.52S51.94,4.65,63.2,4.65s19.06,8.8,19.06,18.91-9.02,18.52-19.46,18.52"/>
      <polygon class="cls-1" points="24.09 19.48 27.95 19.48 34.96 6.3 29.32 6.3 24.09 19.48"/>
      <polygon class="cls-1" points="5.21 39.49 5.21 6.3 0 6.3 0 43.56 33.67 43.56 33.67 39.49 5.21 39.49"/>
    </g>
  </g>
</svg>