<?xml version="1.0" encoding="UTF-8"?>
<svg id="Warstwa_2" data-name="Warstwa 2" xmlns="http://www.w3.org/2000/svg" viewBox="0 0 314.77 85.87">
  <defs>
    <style>
      .cls-1 {
        fill: #fff;
      }
    </style>
  </defs>
  <g id="Warstwa_1-2" data-name="Warstwa 1">
    <g>
      <path class="cls-1" d="m28.8,25.31c-.93,3.45-3.06,5.89-6.14,7.61-3.39,1.87-9.26,3.04-13.68,2.56.38-3.9.72-7.7,1.12-11.5.34-3.4.69-6.8,1.15-10.19.09-.6.81-1.6,1.24-1.6,3.52.02,7.18-.31,10.55.48,5.24,1.24,7.39,6.55,5.76,12.63m-4.07-16.22c-3.25-.46-6.56-.5-9.86-.6-2.92-.1-5.86-.04-8.94-.04C3.92,27.27,1.96,45.59,0,64.05h5.76c.14-.67.33-1.27.4-1.87.74-7.1,1.51-14.2,2.15-21.29.14-1.6.5-2.25,2.27-2.23,3.49.02,7.01,0,10.47-.45,7.06-.91,12.06-4.66,14.26-11.6,2.78-8.76-1.7-16.22-10.57-17.51"/>
      <path class="cls-1" d="m83.91,85c.4-1.16.7-2.04,1.04-3.05.65.15,1.17.29,1.69.39,2.96.53,5.12-.26,6.23-3.07,1.17-2.95,1.98-6.11,2.43-9.25,1.22-8.54,2.16-17.13,3.21-25.69.56-4.56,1.12-9.11,1.71-13.84h-5.98c-.06-1.14-.12-2.11-.18-3.3h6.51c.76-5.47,1.34-10.77,2.27-16.01.86-4.8,3-8.84,8.05-10.52,2.76-.92,5.49-.93,8.36.3-.34,1-.67,1.94-.98,2.85-6.06-.72-8.06.48-9.37,6.43-.98,4.46-1.35,9.06-1.98,13.6-.14,1.01-.26,2.03-.41,3.29h6.07v3.23h-6.45c-.58,4.56-1.12,8.96-1.69,13.35-1.36,10.46-2.57,20.93-4.17,31.35-.75,4.9-3.23,8.92-8.48,10.34-2.55.69-5.11.64-7.85-.4"/>
      <path class="cls-1" d="m234.88,64.17c.75-7,1.47-13.66,2.17-20.33.15-1.43.42-2.87.34-4.29-.22-3.85-4.45-6.83-8.51-6.12-5,.88-7.82,3.56-8.53,8.63-.83,5.9-1.4,11.84-2.08,17.76-.16,1.36-.3,2.72-.46,4.21h-5.39c1.22-11.45,2.43-22.8,3.65-34.27h5.35c-.13,1.67-.24,3.25-.4,5.3,3-3.17,6.15-4.99,10.14-5.2,6.13-.32,12.29,3.15,11.79,10.75-.5,7.52-1.32,15.02-2.07,22.52-.04.38-.74.95-1.17.98-1.49.12-2.99.05-4.82.05"/>
      <path class="cls-1" d="m291.29,43.65c5.82,0,11.5.02,17.18-.04.45,0,1.18-.48,1.29-.88,1.06-3.88-1.21-8.09-5.01-9.44-6.26-2.22-13.04,2.86-13.46,10.36m-.82,2.79c.18,2.8.06,5.37.57,7.81,1.21,5.83,6.29,8.33,12.4,6.02,1.9-.72,3.69-2.13,5.09-3.63,1.35-1.45,2.38-1.86,4.04-.36-2.42,4-5.89,6.66-10.59,7.4-8.86,1.41-15.53-2.94-17.07-11.13-1.49-7.94,1.63-19.03,11.31-22.25,6.22-2.06,13.8,0,16.8,4.82,2,3.21,2.04,6.77,1.35,10.34-.09.43-1.24.93-1.91.94-6.39.07-12.78.04-19.17.04h-2.82"/>
      <path class="cls-1" d="m200.2,43.48h-18.73c1.03-4.73,2.92-8.63,7.8-10.29,5.67-1.91,10.86,1.73,10.93,7.68.02.81,0,1.61,0,2.61m-.84-12.12c-4.35-2.22-8.97-2.51-13.54-.76-9.07,3.45-11.94,14.04-10.59,21.74,1.44,8.15,7.85,12.66,16.91,11.38,4.78-.67,8.32-3.4,10.83-7.47-1.65-1.32-2.8-1.34-4.02.43-1.67,2.4-4.21,3.66-7.06,4.19-5.12.98-9.3-1.26-10.26-5.83-.57-2.7-.52-5.53-.77-8.61h2.82c6.32,0,12.65.03,18.97-.04.74-.02,1.91-.43,2.11-.96,1.91-4.69-.76-11.7-5.4-14.07"/>
      <path class="cls-1" d="m138.13,42.55c-.05.41-.89,1.05-1.38,1.05-5.69.09-11.38.05-17.24.05.77-6.15,4.43-10.4,9.74-10.83,6.48-.53,9.59,4.38,8.87,9.73m-.89-11.19c-7.25-3.71-16.93-2.01-21.24,6.02-1.56,2.92-2.41,6.38-2.97,9.69-1.24,7.2,2.71,14.07,9.14,16.07,7.05,2.2,14.76-.02,18.71-7.03-.84-.38-1.68-.76-2.58-1.15-2.15,3.01-4.67,5.17-8.28,5.88-4.45.88-8.42-.7-9.93-4.23-1.36-3.16-1.43-6.48-1.03-10.17h19.98c3.54,0,3.7.02,3.9-3.51.28-4.69-.6-8.94-5.7-11.57"/>
      <path class="cls-1" d="m82.36,43.7c-5.48-.12-10.96-.05-16.67-.05.84-4.19,2.41-7.7,6.12-9.73,3.04-1.68,6.15-1.67,9.16.12,2.78,1.67,3.52,4.4,3.64,7.39.05,1.49-.43,2.3-2.25,2.27m2.03-11.89c-6.72-4.33-16.5-2.46-21.19,4.04-3.04,4.21-4.23,9.04-4.02,14.14.17,4.26,1.7,8.01,5.07,10.84,6.14,5.16,18.06,4.07,22.91-4.59-1.51-1.22-2.61-1.48-3.9.36-1.65,2.39-4.16,3.68-7.05,4.24-4.72.89-8.95-.93-10.03-4.93-.81-2.97-.86-6.14-1.27-9.49h20.52c3.71,0,3.7,0,3.87-3.76.21-4.45-.96-8.32-4.9-10.86"/>
      <path class="cls-1" d="m280.59,38.1c-1.05.06-1.87.06-2.68.16-1.68.21-2.79-.06-3.64-1.93-1.41-3.13-5.55-4.34-9.28-3.15-3.31,1.06-5.49,3.37-6.69,6.51-1.62,4.23-2.03,8.64-1.44,13.14.44,3.35,1.41,6.44,5.01,7.57,4.12,1.3,8.04.72,11.34-2.23,1.36-1.22,2.46-2.73,3.8-4.24.71.29,1.51.63,2.48,1.03-2.6,4.66-6.18,7.9-11.41,8.71-6.95,1.08-13.01-.93-16.15-7.93-3.55-7.91-.14-22.33,10.45-25.44,4.61-1.36,9.1-.94,13.31,1.42,2.4,1.35,4.05,3.41,4.89,6.39"/>
      <path class="cls-1" d="m39.18,30.11h5.02c-.14,1.42-.28,2.75-.42,4.15,1.54-1.13,2.87-2.42,4.46-3.18,1.55-.75,3.36-.96,5.53-1.53-.21,2.14-.36,3.79-.54,5.58-1.08.16-2.16.21-3.18.5-3.98,1.13-6.59,5.03-7.1,10.33-.53,5.52-1.11,11.03-1.69,16.55-.06.54-.22,1.06-.34,1.64h-5.38c1.22-11.4,2.42-22.66,3.64-34.03"/>
      <path class="cls-1" d="m160.79,30.03c-.12,1.55-.22,2.82-.35,4.55,2.79-3.19,5.84-4.84,9.95-4.54-.18,1.71-.34,3.31-.52,5.08-1.05.15-2.15.16-3.15.47-4.76,1.46-6.4,5.32-6.99,9.71-.74,5.43-1.16,10.89-1.74,16.34-.09.81-.27,1.61-.42,2.5h-5.36c.36-3.58.7-7.03,1.07-10.48.76-7.08,1.64-14.15,2.23-21.24.17-2.01.78-2.66,2.67-2.41.8.11,1.63.02,2.61.02"/>
      <path class="cls-1" d="m83.25,18.19c-3.78,2.4-7.34,4.66-11.07,7.02-.46-.49-.89-.95-1.11-1.19,3.02-3.22,5.9-6.3,9-9.6,1.1,1.31,2.03,2.42,3.18,3.77"/>
      <path class="cls-1" d="m125.81,25.24c-.47-.55-.86-1-1.04-1.21,3.01-3.19,5.92-6.27,9.04-9.57,1.06,1.28,1.99,2.4,3.1,3.73-3.79,2.41-7.4,4.7-11.1,7.05"/>
    </g>
  </g>
</svg>